<mxfile host="app.diagrams.net" agent="Mozilla/5.0 (Macintosh; Intel Mac OS X 10_15_7) AppleWebKit/537.36 (KHTML, like Gecko) Chrome/131.0.0.0 Safari/537.36 Edg/131.0.0.0" version="26.0.4">
  <diagram name="第 1 页" id="HyUsz8NJp9onLbRjgEd9">
    <mxGraphModel dx="1001" dy="604" grid="0" gridSize="10" guides="1" tooltips="1" connect="1" arrows="1" fold="1" page="1" pageScale="1" pageWidth="850" pageHeight="1100" math="1" shadow="0">
      <root>
        <mxCell id="0" />
        <mxCell id="1" parent="0" />
        <mxCell id="tRWuEwD7snQRo6Gy2zCz-79" value="" style="html=1;verticalAlign=bottom;endArrow=blockThin;curved=0;rounded=1;endFill=1;strokeColor=#666666;strokeWidth=3;endSize=3;" edge="1" parent="1">
          <mxGeometry x="-0.0002" width="80" relative="1" as="geometry">
            <mxPoint x="319.5018367346939" y="119.8" as="sourcePoint" />
            <mxPoint x="454.5" y="119.8" as="targetPoint" />
            <mxPoint as="offset" />
          </mxGeometry>
        </mxCell>
        <mxCell id="tRWuEwD7snQRo6Gy2zCz-69" value="" style="shape=umlFrame;whiteSpace=wrap;html=1;pointerEvents=0;width=40;height=21;fillColor=#b0e3e6;strokeColor=#0e8088;fillStyle=auto;shadow=0;strokeWidth=1.5;gradientColor=none;swimlaneFillColor=light-dark(#F4FDFF,#002813);" vertex="1" parent="1">
          <mxGeometry x="273" y="151" width="230" height="62" as="geometry" />
        </mxCell>
        <mxCell id="tRWuEwD7snQRo6Gy2zCz-7" value="&lt;font face=&quot;Helvetica&quot; style=&quot;color: rgb(0, 102, 0); font-size: 14px;&quot;&gt;&lt;b style=&quot;&quot;&gt;B&lt;/b&gt;&lt;/font&gt;" style="shape=umlLifeline;perimeter=lifelinePerimeter;whiteSpace=wrap;html=1;container=1;dropTarget=0;collapsible=0;recursiveResize=0;outlineConnect=0;portConstraint=eastwest;newEdgeStyle={&quot;curved&quot;:0,&quot;rounded&quot;:0};size=19;fillColor=#d5e8d4;strokeColor=#82b366;strokeWidth=3;rounded=1;shadow=0;" vertex="1" parent="1">
          <mxGeometry x="369" y="63" width="45" height="177" as="geometry" />
        </mxCell>
        <mxCell id="tRWuEwD7snQRo6Gy2zCz-10" value="" style="html=1;verticalAlign=bottom;endArrow=blockThin;curved=0;rounded=1;endFill=1;strokeColor=#666666;strokeWidth=3;endSize=3;" edge="1" parent="1">
          <mxGeometry x="-0.0002" width="80" relative="1" as="geometry">
            <mxPoint x="320.64183673469387" y="141.00000000000003" as="sourcePoint" />
            <mxPoint x="455.35" y="141" as="targetPoint" />
            <mxPoint as="offset" />
          </mxGeometry>
        </mxCell>
        <mxCell id="tRWuEwD7snQRo6Gy2zCz-66" value="&lt;font face=&quot;Verdana&quot; style=&quot;font-size: 24px;&quot;&gt;...&lt;/font&gt;" style="text;html=1;align=center;verticalAlign=middle;resizable=0;points=[];autosize=1;strokeColor=none;fillColor=none;" vertex="1" parent="1">
          <mxGeometry x="390" y="200" width="50" height="40" as="geometry" />
        </mxCell>
        <mxCell id="tRWuEwD7snQRo6Gy2zCz-67" value="&lt;font face=&quot;Verdana&quot; style=&quot;font-size: 24px;&quot;&gt;...&lt;/font&gt;" style="text;html=1;align=center;verticalAlign=middle;resizable=0;points=[];autosize=1;strokeColor=none;fillColor=none;" vertex="1" parent="1">
          <mxGeometry x="335" y="173" width="50" height="40" as="geometry" />
        </mxCell>
        <mxCell id="tRWuEwD7snQRo6Gy2zCz-70" value="" style="html=1;verticalAlign=bottom;endArrow=blockThin;curved=0;rounded=1;endFill=1;strokeColor=#666666;strokeWidth=3;endSize=3;" edge="1" parent="1">
          <mxGeometry x="-0.0002" width="80" relative="1" as="geometry">
            <mxPoint x="320" y="98" as="sourcePoint" />
            <mxPoint x="389" y="98" as="targetPoint" />
            <mxPoint as="offset" />
          </mxGeometry>
        </mxCell>
        <mxCell id="tRWuEwD7snQRo6Gy2zCz-75" value="&lt;font face=&quot;Helvetica&quot; style=&quot;color: rgb(0, 102, 0); font-size: 14px;&quot;&gt;&lt;b style=&quot;&quot;&gt;A&lt;/b&gt;&lt;/font&gt;" style="shape=umlLifeline;perimeter=lifelinePerimeter;whiteSpace=wrap;html=1;container=1;dropTarget=0;collapsible=0;recursiveResize=0;outlineConnect=0;portConstraint=eastwest;newEdgeStyle={&quot;curved&quot;:0,&quot;rounded&quot;:0};size=19;fillColor=#d5e8d4;strokeColor=#82b366;strokeWidth=3;rounded=1;shadow=0;" vertex="1" parent="1">
          <mxGeometry x="298" y="63" width="45" height="177" as="geometry" />
        </mxCell>
        <mxCell id="tRWuEwD7snQRo6Gy2zCz-76" value="&lt;font style=&quot;color: rgb(102, 102, 102);&quot;&gt;&lt;span style=&quot;font-size: 15px;&quot;&gt;e&lt;/span&gt;&lt;sub style=&quot;&quot;&gt;&lt;font&gt;0&lt;/font&gt;&lt;/sub&gt;&lt;/font&gt;" style="text;html=1;align=center;verticalAlign=middle;resizable=0;points=[];autosize=1;strokeColor=none;fillColor=none;" vertex="1" parent="1">
          <mxGeometry x="288" y="81" width="40" height="30" as="geometry" />
        </mxCell>
        <mxCell id="tRWuEwD7snQRo6Gy2zCz-77" value="&lt;font style=&quot;color: rgb(102, 102, 102);&quot;&gt;&lt;span style=&quot;font-size: 15px;&quot;&gt;e&lt;/span&gt;&lt;sub style=&quot;&quot;&gt;&lt;font&gt;1&lt;/font&gt;&lt;/sub&gt;&lt;/font&gt;" style="text;html=1;align=center;verticalAlign=middle;resizable=0;points=[];autosize=1;strokeColor=none;fillColor=none;" vertex="1" parent="1">
          <mxGeometry x="385" y="81" width="40" height="30" as="geometry" />
        </mxCell>
        <mxCell id="tRWuEwD7snQRo6Gy2zCz-78" value="&lt;font style=&quot;color: rgb(102, 102, 102);&quot;&gt;&lt;span style=&quot;font-size: 15px;&quot;&gt;e&lt;/span&gt;&lt;sub style=&quot;&quot;&gt;&lt;font&gt;2&lt;/font&gt;&lt;/sub&gt;&lt;/font&gt;" style="text;html=1;align=center;verticalAlign=middle;resizable=0;points=[];autosize=1;strokeColor=none;fillColor=none;" vertex="1" parent="1">
          <mxGeometry x="287" y="105" width="40" height="30" as="geometry" />
        </mxCell>
        <mxCell id="tRWuEwD7snQRo6Gy2zCz-80" value="&lt;font face=&quot;Helvetica&quot; style=&quot;color: rgb(0, 102, 0); font-size: 14px;&quot;&gt;&lt;b style=&quot;&quot;&gt;C&lt;/b&gt;&lt;/font&gt;" style="shape=umlLifeline;perimeter=lifelinePerimeter;whiteSpace=wrap;html=1;container=1;dropTarget=0;collapsible=0;recursiveResize=0;outlineConnect=0;portConstraint=eastwest;newEdgeStyle={&quot;curved&quot;:0,&quot;rounded&quot;:0};size=19;fillColor=#d5e8d4;strokeColor=#82b366;strokeWidth=3;rounded=1;shadow=0;" vertex="1" parent="1">
          <mxGeometry x="436" y="63" width="45" height="177" as="geometry" />
        </mxCell>
        <mxCell id="tRWuEwD7snQRo6Gy2zCz-81" value="&lt;font style=&quot;color: rgb(102, 102, 102);&quot;&gt;&lt;span style=&quot;font-size: 15px;&quot;&gt;e&lt;/span&gt;&lt;sub style=&quot;&quot;&gt;&lt;font&gt;3&lt;/font&gt;&lt;/sub&gt;&lt;/font&gt;" style="text;html=1;align=center;verticalAlign=middle;resizable=0;points=[];autosize=1;strokeColor=none;fillColor=none;" vertex="1" parent="1">
          <mxGeometry x="450" y="106" width="40" height="30" as="geometry" />
        </mxCell>
        <mxCell id="tRWuEwD7snQRo6Gy2zCz-82" value="" style="shape=curlyBracket;whiteSpace=wrap;html=1;rounded=1;flipH=1;labelPosition=right;verticalLabelPosition=middle;align=left;verticalAlign=middle;strokeWidth=2;fillColor=#fad9d5;strokeColor=#ae4132;rotation=-180;" vertex="1" parent="1">
          <mxGeometry x="288" y="96" width="10" height="27" as="geometry" />
        </mxCell>
        <mxCell id="tRWuEwD7snQRo6Gy2zCz-86" value="" style="curved=1;endArrow=blockThin;html=1;rounded=0;endFill=1;strokeColor=light-dark(#ae4132, #ededed);endSize=4;strokeWidth=2;" edge="1" parent="1">
          <mxGeometry width="50" height="50" relative="1" as="geometry">
            <mxPoint x="435" y="120" as="sourcePoint" />
            <mxPoint x="486" y="93" as="targetPoint" />
            <Array as="points">
              <mxPoint x="443" y="97" />
            </Array>
          </mxGeometry>
        </mxCell>
        <mxCell id="tRWuEwD7snQRo6Gy2zCz-71" value="" style="html=1;verticalAlign=bottom;endArrow=blockThin;curved=0;rounded=1;endFill=1;strokeColor=#666666;strokeWidth=3;endSize=3;" edge="1" parent="1">
          <mxGeometry x="-0.0002" width="80" relative="1" as="geometry">
            <mxPoint x="389.9999999999998" y="181.63" as="sourcePoint" />
            <mxPoint x="322" y="181.63" as="targetPoint" />
            <mxPoint as="offset" />
          </mxGeometry>
        </mxCell>
        <mxCell id="tRWuEwD7snQRo6Gy2zCz-90" value="&lt;font style=&quot;color: rgb(102, 102, 102);&quot;&gt;&lt;span style=&quot;font-size: 15px;&quot;&gt;e&lt;/span&gt;&lt;sub style=&quot;&quot;&gt;&lt;font&gt;4&lt;/font&gt;&lt;/sub&gt;&lt;/font&gt;" style="text;html=1;align=center;verticalAlign=middle;resizable=0;points=[];autosize=1;strokeColor=none;fillColor=none;" vertex="1" parent="1">
          <mxGeometry x="291" y="122" width="32" height="32" as="geometry" />
        </mxCell>
        <mxCell id="tRWuEwD7snQRo6Gy2zCz-91" value="&lt;font style=&quot;color: rgb(102, 102, 102);&quot;&gt;&lt;span style=&quot;font-size: 15px;&quot;&gt;e&lt;/span&gt;&lt;sub style=&quot;&quot;&gt;&lt;font&gt;5&lt;/font&gt;&lt;/sub&gt;&lt;/font&gt;" style="text;html=1;align=center;verticalAlign=middle;resizable=0;points=[];autosize=1;strokeColor=none;fillColor=none;" vertex="1" parent="1">
          <mxGeometry x="454" y="125" width="32" height="32" as="geometry" />
        </mxCell>
        <mxCell id="tRWuEwD7snQRo6Gy2zCz-93" value="" style="shape=curlyBracket;whiteSpace=wrap;html=1;rounded=1;flipH=0;labelPosition=right;verticalLabelPosition=middle;align=left;verticalAlign=middle;strokeWidth=2;fillColor=#fad9d5;strokeColor=#ae4132;rotation=-180;flipV=1;" vertex="1" parent="1">
          <mxGeometry x="478" y="118.5" width="10" height="27" as="geometry" />
        </mxCell>
        <mxCell id="tRWuEwD7snQRo6Gy2zCz-95" value="&lt;div style=&quot;forced-color-adjust: none; font-family: Helvetica; font-style: normal; font-variant-ligatures: normal; font-variant-caps: normal; font-weight: 400; letter-spacing: normal; orphans: 2; text-align: left; text-indent: 0px; text-transform: none; widows: 2; word-spacing: 0px; -webkit-text-stroke-width: 0px; white-space: normal; background-color: rgb(251, 251, 251); text-decoration-thickness: initial; text-decoration-style: initial; text-decoration-color: initial; line-height: 12px;&quot;&gt;&lt;font face=&quot;Helvetica&quot; style=&quot;forced-color-adjust: none; line-height: 18px; color: light-dark(rgb(77, 77, 77), rgb(255, 255, 255)); font-size: 15px;&quot;&gt;&lt;span style=&quot;forced-color-adjust: none; background-color: transparent; text-wrap-mode: nowrap;&quot;&gt;\(e_1 - e_0 &amp;gt;0\)&lt;/span&gt;&lt;/font&gt;&lt;/div&gt;" style="text;whiteSpace=wrap;html=1;" vertex="1" parent="1">
          <mxGeometry x="196" y="94" width="95" height="31" as="geometry" />
        </mxCell>
        <mxCell id="tRWuEwD7snQRo6Gy2zCz-96" value="&lt;div style=&quot;forced-color-adjust: none; font-family: Helvetica; font-style: normal; font-variant-ligatures: normal; font-variant-caps: normal; font-weight: 400; letter-spacing: normal; orphans: 2; text-align: left; text-indent: 0px; text-transform: none; widows: 2; word-spacing: 0px; -webkit-text-stroke-width: 0px; white-space: normal; background-color: rgb(251, 251, 251); text-decoration-thickness: initial; text-decoration-style: initial; text-decoration-color: initial; line-height: 12px;&quot;&gt;&lt;font face=&quot;Helvetica&quot; style=&quot;forced-color-adjust: none; line-height: 18px; color: light-dark(rgb(77, 77, 77), rgb(255, 255, 255)); font-size: 16px;&quot;&gt;&lt;span style=&quot;forced-color-adjust: none; background-color: transparent; text-wrap-mode: nowrap;&quot;&gt;\(e_3 - e_2 &amp;gt;0\)&lt;/span&gt;&lt;/font&gt;&lt;/div&gt;" style="text;whiteSpace=wrap;html=1;" vertex="1" parent="1">
          <mxGeometry x="490" y="73" width="113" height="33" as="geometry" />
        </mxCell>
        <mxCell id="tRWuEwD7snQRo6Gy2zCz-97" value="&lt;div style=&quot;forced-color-adjust: none; font-family: Helvetica; font-style: normal; font-variant-ligatures: normal; font-variant-caps: normal; font-weight: 400; letter-spacing: normal; orphans: 2; text-align: left; text-indent: 0px; text-transform: none; widows: 2; word-spacing: 0px; -webkit-text-stroke-width: 0px; white-space: normal; background-color: rgb(251, 251, 251); text-decoration-thickness: initial; text-decoration-style: initial; text-decoration-color: initial; line-height: 12px;&quot;&gt;&lt;font face=&quot;Helvetica&quot; style=&quot;forced-color-adjust: none; line-height: 18px; color: light-dark(rgb(77, 77, 77), rgb(255, 255, 255)); font-size: 16px;&quot;&gt;&lt;span style=&quot;forced-color-adjust: none; background-color: transparent; text-wrap-mode: nowrap;&quot;&gt;\(e_5 - e_3 &amp;gt;0\)&lt;/span&gt;&lt;/font&gt;&lt;/div&gt;" style="text;whiteSpace=wrap;html=1;" vertex="1" parent="1">
          <mxGeometry x="490" y="112.5" width="113" height="33" as="geometry" />
        </mxCell>
      </root>
    </mxGraphModel>
  </diagram>
</mxfile>
